<?xml version="1.0" encoding="UTF-8"?>
<svg id="Layer_2" data-name="Layer 2" xmlns="http://www.w3.org/2000/svg" viewBox="0 0 1000 1000">
  <defs>
    <style>
      .cls-1 {
        fill: #fff;
      }

      .cls-2 {
        fill: #fdbd13;
      }

      .cls-3 {
        fill: #42b558;
      }

      .cls-4 {
        fill: #231f20;
      }
    </style>
  </defs>
  <rect class="cls-2" x="-97.03" y="-24.45" width="1238.8" height="1066.39"/>
  <g>
    <g>
      <path class="cls-3" d="m119.73,978.97c23.03-129.56,93.9-234.37,176.69-290.29,86.12-58.17,183.76-69.1,278.22-59.39,78.62,8.08,158.47,30.9,225.91,91.16,49.3,44.05,91.54,110.55,112.75,190.42,21.34,80.32,8.06,110.44-46.59,122.43-83.18,18.24-166.95-9.73-250.16-7.36-103.71,2.96-207.42,5.92-311.12,8.87-49.06,1.4-101.11-5.6-149,7.82-15.4,4.31-35.48-.59-39.86-22.83-1.6-8.12-.6-16.81.6-25.07.77-5.29,1.62-10.55,2.55-15.76Z"/>
      <path class="cls-4" d="m146.09,1065.46c-9.98,0-19.63-2.59-27.82-7.62-11.92-7.33-19.76-19.06-22.68-33.91-2.26-11.51-.97-22.69.42-32.27.8-5.47,1.69-11,2.65-16.43h0c22.61-127.22,92.06-240.97,185.78-304.27,42.81-28.91,91.26-48.58,144.02-58.45,45.19-8.46,95.11-9.97,148.36-4.49,45.84,4.71,85.88,13.63,122.43,27.25,43.33,16.15,82.2,39.44,115.54,69.24,55.65,49.72,97.97,121.06,119.17,200.88,14.2,53.46,13.91,86.68-.97,111.08-15.26,25.03-42.52,33.52-61.7,37.72-53.71,11.78-106.78,5.64-158.1-.3-33.22-3.84-64.6-7.47-96.03-6.58l-311.12,8.87c-14.8.42-29.87.11-44.44-.2-35.22-.73-68.49-1.43-99.4,7.23-5.35,1.5-10.78,2.24-16.12,2.24Zm369.21-417.94c-80.43,0-148.51,19.44-206.91,58.88-84.32,56.95-146.98,160.25-167.61,276.31h0c-.89,4.99-1.71,10.07-2.44,15.1-.88,6.08-1.75,12.97-.78,17.87.85,4.33,2.51,5.35,3.13,5.74,2.28,1.41,6.29,1.66,9.97.62,37.02-10.37,75.05-9.58,111.84-8.81,14.7.31,28.59.6,42.33.21l311.12-8.87c34.5-.99,68.9,2.99,102.17,6.84,50.03,5.79,97.29,11.25,144.02,1,24.05-5.27,31.12-12.92,34.35-18.21,7.89-12.93,6.63-38.39-3.85-77.83-19.08-71.84-56.85-135.75-106.33-179.96-55.09-49.22-123.04-76.49-213.85-85.83-19.72-2.03-38.76-3.04-57.16-3.04Z"/>
    </g>
    <g>
      <path class="cls-1" d="m87.4,623.82c-46.73,39.53-56.52,107.49-54.64,168.66.37,11.98,1.18,24.4,6.89,34.94,5.62,10.38,15.37,17.78,24.94,24.69,44.23,31.93,91.68,60.75,144.14,75.7,52.46,14.94,110.75,14.94,159.74-9.06,20.8-10.19,39.85-24.82,52.52-44.22,13.72-21,19.25-46.31,21.99-71.25,4.96-45.04,1.49-91.65-15.5-133.66-16.99-42.01-48.33-79.07-89.49-98.01-24.51-11.28-51.62-15.91-78.56-17.4-36.3-2.02-73.54,1.64-106.82,16.26-33.28,14.62-62.31,41.13-74.83,75.25"/>
      <path d="m71.2,607.61c-31.57,26.84-49.02,67.19-56.1,107.27-3.71,20.96-5.45,42.23-5.47,63.51,0,12.32.44,24.55,2.26,36.76,2.15,14.44,8.71,27.37,18.54,38.1,8.37,9.13,19.04,16.15,29.1,23.29,9.32,6.61,18.76,13.05,28.37,19.23,19.17,12.34,39.02,23.68,59.72,33.25,22.1,10.21,45.01,18.94,68.76,24.41,23.39,5.39,47.73,8.23,71.74,7.42,48.16-1.63,98.07-17.19,133.32-51.22,18.25-17.61,30.42-40.2,37.13-64.53,3.46-12.53,5.35-25.4,6.91-38.29,1.4-11.58,2.23-23.23,2.43-34.89.85-48.32-8.92-97.85-33.42-139.9-10.75-18.45-24.35-35.76-40.24-50.04-8.57-7.7-17.83-14.82-27.61-20.92-10.37-6.47-21.51-11.56-32.93-15.87-23.62-8.9-49.2-12.5-74.29-13.9-24.91-1.39-50.04.1-74.51,5.07-11.35,2.31-22.52,5.54-33.28,9.86-10.94,4.39-21.58,9.3-31.55,15.62-19.57,12.42-36.39,28.35-49.37,47.57-6.33,9.37-11.12,19.63-15.04,30.22-1.96,5.29-.45,12.95,2.31,17.66s8.23,9.29,13.69,10.53c5.87,1.34,12.45,1.05,17.66-2.31,1.55-1.19,3.09-2.39,4.64-3.58,2.84-2.86,4.8-6.23,5.89-10.11.58-1.56,1.18-3.1,1.82-4.63-.77,1.82-1.54,3.65-2.31,5.47,4.03-9.53,9.32-18.44,15.62-26.63-1.19,1.55-2.39,3.09-3.58,4.64,7.28-9.36,15.77-17.68,25.15-24.93-1.55,1.19-3.09,2.39-4.64,3.58,10.54-8.08,22.07-14.73,34.28-19.94l-5.47,2.31c16.4-6.91,33.72-11.26,51.34-13.64l-6.09.82c25.34-3.34,51.29-2.94,76.61.41-2.03-.27-4.06-.55-6.09-.82,17.32,2.34,34.42,6.4,50.58,13.15-1.82-.77-3.65-1.54-5.47-2.31,12.61,5.33,24.41,12.3,35.25,20.65-1.55-1.19-3.09-2.39-4.64-3.58,11.93,9.26,22.56,20.07,31.82,31.98-1.19-1.55-2.39-3.09-3.58-4.64,10.56,13.67,19.27,28.69,26.02,44.58l-2.31-5.47c8.13,19.31,13.36,39.71,16.2,60.45-.27-2.03-.55-4.06-.82-6.09,3.73,27.8,3.28,56.11-.45,83.89l.82-6.09c-2.12,15.5-5.49,30.88-11.51,45.37.77-1.82,1.54-3.65,2.31-5.47-3.71,8.77-8.38,17.06-14.17,24.63l3.58-4.64c-6.27,8.1-13.63,15.25-21.71,21.54,1.55-1.19,3.09-2.39,4.64-3.58-10.78,8.29-22.68,14.95-35.18,20.26,1.82-.77,3.65-1.54,5.47-2.31-15.83,6.64-32.5,10.98-49.49,13.29,2.03-.27,4.06-.55,6.09-.82-20.9,2.76-42.1,2.46-62.98-.32,2.03.27,4.06.55,6.09.82-26.4-3.59-52.01-11.24-76.53-21.58l5.47,2.31c-31.52-13.37-61.04-30.99-89.21-50.37-7.81-5.37-15.62-10.79-23.14-16.55l4.64,3.58c-5.29-4.09-10.33-8.51-14.47-13.79,1.19,1.55,2.39,3.09,3.58,4.64-2.36-3.09-4.31-6.4-5.85-9.97l2.31,5.47c-2-4.88-3.18-9.99-3.91-15.2l.82,6.09c-1.7-12.91-1.53-26.22-1.23-39.22.29-12.42,1.18-24.83,2.83-37.15l-.82,6.09c2.61-19.13,7.09-38.07,14.57-55.91-.77,1.82-1.54,3.65-2.31,5.47,5.01-11.84,11.34-23.09,19.2-33.28l-3.58,4.64c5.4-6.93,11.46-13.29,18.15-18.98,4.26-3.62,6.71-10.8,6.71-16.2s-2.5-12.33-6.71-16.2c-4.37-4.01-10.1-6.98-16.2-6.71-2.03.27-4.06.55-6.09.82-3.88,1.09-7.25,3.05-10.11,5.89h0Z"/>
    </g>
    <g>
      <path class="cls-1" d="m609.81,623.82c-46.73,39.53-56.52,107.49-54.64,168.66.37,11.98,1.18,24.4,6.89,34.94,5.62,10.38,15.37,17.78,24.94,24.69,44.23,31.93,91.68,60.75,144.14,75.7,52.46,14.94,110.75,14.94,159.74-9.06,20.8-10.19,39.85-24.82,52.52-44.22,13.72-21,19.25-46.31,21.99-71.25,4.96-45.04,1.49-91.65-15.5-133.66-16.99-42.01-48.33-79.07-89.49-98.01-24.51-11.28-51.62-15.91-78.56-17.4-36.3-2.02-73.54,1.64-106.82,16.26-33.28,14.62-62.31,41.13-74.83,75.25"/>
      <path d="m593.61,607.61c-31.57,26.84-49.02,67.19-56.1,107.27-3.71,20.96-5.45,42.23-5.47,63.51,0,12.32.44,24.55,2.26,36.76,2.15,14.44,8.71,27.37,18.54,38.1,8.37,9.13,19.04,16.15,29.1,23.29,9.32,6.61,18.76,13.05,28.37,19.23,19.17,12.34,39.02,23.68,59.72,33.25,22.1,10.21,45.01,18.94,68.76,24.41,23.39,5.39,47.73,8.23,71.74,7.42,48.16-1.63,98.07-17.19,133.32-51.22,18.25-17.61,30.42-40.2,37.13-64.53,3.46-12.53,5.35-25.4,6.91-38.29,1.4-11.58,2.23-23.23,2.43-34.89.85-48.32-8.92-97.85-33.42-139.9-10.75-18.45-24.35-35.76-40.24-50.04-8.57-7.7-17.83-14.82-27.61-20.92-10.37-6.47-21.51-11.56-32.93-15.87-23.62-8.9-49.2-12.5-74.29-13.9-24.91-1.39-50.04.1-74.51,5.07-11.35,2.31-22.52,5.54-33.28,9.86-10.94,4.39-21.58,9.3-31.55,15.62-19.57,12.42-36.39,28.35-49.37,47.57-6.33,9.37-11.12,19.63-15.04,30.22-1.96,5.29-.45,12.95,2.31,17.66,2.78,4.75,8.23,9.29,13.69,10.53,5.87,1.34,12.45,1.05,17.66-2.31,1.55-1.19,3.09-2.39,4.64-3.58,2.84-2.86,4.8-6.23,5.89-10.11.58-1.56,1.18-3.1,1.82-4.63-.77,1.82-1.54,3.65-2.31,5.47,4.03-9.53,9.32-18.44,15.62-26.63-1.19,1.55-2.39,3.09-3.58,4.64,7.28-9.36,15.77-17.68,25.15-24.93-1.55,1.19-3.09,2.39-4.64,3.58,10.54-8.08,22.07-14.73,34.28-19.94l-5.47,2.31c16.4-6.91,33.72-11.26,51.34-13.64l-6.09.82c25.34-3.34,51.29-2.94,76.61.41-2.03-.27-4.06-.55-6.09-.82,17.32,2.34,34.42,6.4,50.58,13.15-1.82-.77-3.65-1.54-5.47-2.31,12.61,5.33,24.41,12.3,35.25,20.65-1.55-1.19-3.09-2.39-4.64-3.58,11.93,9.26,22.56,20.07,31.82,31.98-1.19-1.55-2.39-3.09-3.58-4.64,10.56,13.67,19.27,28.69,26.02,44.58l-2.31-5.47c8.13,19.31,13.36,39.71,16.2,60.45-.27-2.03-.55-4.06-.82-6.09,3.73,27.8,3.28,56.11-.45,83.89.27-2.03.55-4.06.82-6.09-2.12,15.5-5.49,30.88-11.51,45.37.77-1.82,1.54-3.65,2.31-5.47-3.71,8.77-8.38,17.06-14.17,24.63,1.19-1.55,2.39-3.09,3.58-4.64-6.27,8.1-13.63,15.25-21.71,21.54,1.55-1.19,3.09-2.39,4.64-3.58-10.78,8.29-22.68,14.95-35.18,20.26,1.82-.77,3.65-1.54,5.47-2.31-15.83,6.64-32.5,10.98-49.49,13.29,2.03-.27,4.06-.55,6.09-.82-20.9,2.76-42.1,2.46-62.98-.32,2.03.27,4.06.55,6.09.82-26.4-3.59-52.01-11.24-76.53-21.58l5.47,2.31c-31.52-13.37-61.04-30.99-89.21-50.37-7.81-5.37-15.62-10.79-23.14-16.55l4.64,3.58c-5.29-4.09-10.33-8.51-14.47-13.79,1.19,1.55,2.39,3.09,3.58,4.64-2.36-3.09-4.31-6.4-5.85-9.97l2.31,5.47c-2-4.88-3.18-9.99-3.91-15.2l.82,6.09c-1.7-12.91-1.53-26.22-1.23-39.22.29-12.42,1.18-24.83,2.83-37.15l-.82,6.09c2.61-19.13,7.09-38.07,14.57-55.91-.77,1.82-1.54,3.65-2.31,5.47,5.01-11.84,11.34-23.09,19.2-33.28l-3.58,4.64c5.4-6.93,11.46-13.29,18.15-18.98,4.26-3.62,6.71-10.8,6.71-16.2s-2.5-12.33-6.71-16.2c-4.37-4.01-10.1-6.98-16.2-6.71-2.03.27-4.06.55-6.09.82-3.88,1.09-7.25,3.05-10.11,5.89h0Z"/>
    </g>
    <g>
      <path d="m247.96,734.68c.98-8.47,8.23-32.59-9.4-28.79-21.17,4.56-26.37,37.22-25.83,54.81.21,6.71,1.38,13.77,5.7,18.91,7.01,8.35,20.81,8.61,29.63,2.2,5.65-4.11,9.5-10.3,12.05-16.81,5.09-12.99,5.63-27.71,3.83-41.42-.85-6.46-4.51-23.42-14.02-15.18-4.89,4.23-8.87,13.77-11.59,19.58-3.81,8.11-6.59,16.72-8.04,25.56-.42,2.57-.72,5.26.04,7.75.77,2.49,2.87,4.75,5.48,4.91,4.05.25,6.67-4.23,7.6-8.17.91-3.85,1.18-7.85.8-11.78"/>
      <path class="cls-4" d="m249.87,734.68c.02-.15.04-.3.06-.44-.05.4,0-.06.03-.21.06-.37.12-.75.18-1.12.15-.88.3-1.76.46-2.64.34-1.94.68-3.89.95-5.85.58-4.17,1.01-8.49.13-12.65-.77-3.64-2.99-6.86-6.74-7.84-4.56-1.19-9.86.52-13.81,2.8-8.98,5.19-13.88,15.34-16.68,24.93-2.82,9.64-4.05,20.02-3.59,30.06.33,7.11,1.84,14.65,6.89,19.99,4.18,4.42,10.34,6.51,16.34,6.47,6.44-.04,12.58-2.44,17.39-6.7,5.51-4.89,9.06-11.66,11.41-18.54,2.59-7.59,3.73-15.66,3.88-23.66.12-6.58-.29-13.31-1.58-19.77-.86-4.29-2.13-8.95-4.98-12.38-1.28-1.55-3.04-2.68-5.07-2.84-2.44-.19-4.65,1.12-6.45,2.64-4.82,4.08-7.61,10.54-10.2,16.14-3.26,7.04-6.32,14.11-8.28,21.64-1.02,3.91-1.98,7.99-2.22,12.03-.22,3.67.74,7.5,3.78,9.82,2.72,2.08,6.3,1.95,8.96-.16,2.41-1.91,3.82-4.96,4.53-7.89.97-4.01,1.24-8.19.87-12.29-.22-2.43-4.04-2.45-3.82,0,.34,3.77.16,7.59-.73,11.27-.56,2.31-1.68,5.27-3.96,6.42-2.42,1.22-4.72-.91-5.44-3.15-1.09-3.44.01-7.49.74-10.91,1.56-7.33,4.02-14.42,7.19-21.21,2.47-5.3,4.76-10.79,8.18-15.57,1.31-1.83,3.01-3.9,5.17-4.75,1.24-.48,2.18-.27,3.05.45,2.68,2.23,3.81,6.57,4.62,9.96,1.25,5.25,1.64,10.11,1.81,15.71.22,7.31-.33,14.66-2.06,21.78-2.9,11.91-9.52,25.16-22.68,27.73-5.1,1-10.68.21-15.05-2.69-5.2-3.44-7.39-9.69-8.13-15.63-1.14-9.19-.17-18.94,1.84-27.95,1.97-8.82,5.28-18.17,12-24.52,3.08-2.91,6.9-4.94,11.1-5.63,1.75-.29,3.35-.31,4.91.36-.24-.1.43.24.53.3.15.09.3.19.44.3-.31-.24.13.12.15.15.12.12.69.75.52.52.26.33.47.69.67,1.06.5.94.97,2.85,1.07,4,.17,1.83.15,3.66.02,5.49-.25,3.55-.89,6.97-1.51,10.53-.26,1.46-.51,2.93-.68,4.41-.12,1.03.96,1.91,1.91,1.91,1.13,0,1.79-.88,1.91-1.91h0Z"/>
    </g>
    <g>
      <path d="m781.99,728.77c-11.35,12.31-11.08,33.54.57,45.57.84.87,1.79,1.72,2.97,1.96,1.1.22,2.24-.12,3.28-.53,12.75-5.05,18.66-19.42,23.24-32.34,2.08-5.88,4.2-12.14,2.91-18.24-1.04-4.93-4.19-9.13-7.57-12.86-6.95-7.64-15.29-14.01-24.49-18.7-4.06-2.07-8.42-3.84-12.97-3.85-4.97,0-9.72,2.12-13.83,4.9-15.34,10.38-22.79,29.94-21.91,48.44.87,18.5,9.04,35.99,19.55,51.24,2.14,3.1,4.65,6.32,8.29,7.3,2.54.68,5.24.14,7.78-.56,8.54-2.33,16.79-6.49,22.69-13.09,7.49-8.36,10.56-19.94,10.68-31.16.12-11.22-2.43-22.28-4.98-33.21-1.02-4.39-2.1-8.91-4.73-12.56-6.17-8.58-18.32-9.6-28.88-9.84-4.82-.11-9.73-.2-14.37,1.14"/>
      <path class="cls-4" d="m780.19,726.97c-9.81,10.77-11.62,27.12-5.58,40.19,1.47,3.19,3.49,6.17,5.91,8.72,1.57,1.66,3.46,3.06,5.85,3.03,2.04-.03,4.06-1,5.85-1.91,6.43-3.26,11.2-9.04,14.69-15.21,3.78-6.69,6.5-14.07,8.86-21.36,1.48-4.55,2.57-9.38,1.94-14.18-.57-4.32-2.53-8.21-5.13-11.66-5.2-6.89-11.91-12.76-19.01-17.6-3.62-2.47-7.45-4.72-11.43-6.56-4.15-1.93-8.65-3.44-13.3-3.16-8.32.51-15.91,5.67-21.55,11.52-5.28,5.47-9.17,12.1-11.81,19.2-5.71,15.4-4.68,32.33.57,47.7,2.84,8.3,6.77,16.22,11.38,23.67,4.25,6.87,9.3,16.13,18.73,15.06,4.41-.5,8.75-2.1,12.8-3.86,3.83-1.66,7.4-3.79,10.67-6.37,6.52-5.15,10.99-12.33,13.49-20.2,2.63-8.29,3.05-17.15,2.22-25.77-.93-9.65-3.05-19.3-5.51-28.66-1.1-4.19-2.69-8.23-5.55-11.54-2.39-2.76-5.52-4.7-8.87-6.08-6.83-2.82-14.49-3.11-21.79-3.26-4.72-.09-9.49-.03-14.08,1.25-3.15.88-1.81,5.79,1.35,4.91,4.23-1.18,8.61-1.16,12.97-1.06,3.38.07,6.76.19,10.12.58,6.08.71,12.55,2.47,16.69,7.27,2.41,2.79,3.52,6.43,4.4,9.93,1.08,4.28,2.04,8.61,2.95,12.93,1.77,8.5,3.05,17.17,2.47,25.87-.49,7.32-2.38,14.67-6.21,20.97-3.86,6.37-9.71,11-16.4,14.16-3.42,1.61-7.11,2.9-10.81,3.67-1.71.35-3.57.48-5.22-.21-1.53-.65-2.75-1.84-3.83-3.07-2.49-2.85-4.48-6.24-6.46-9.46-2.13-3.46-4.11-7.02-5.89-10.67-6.59-13.47-10.61-28.83-8.48-43.88,1.87-13.2,8.19-26.43,19.23-34.34,3.16-2.26,6.63-4.15,10.48-4.92,3.84-.77,7.7.14,11.26,1.6,7.27,2.99,14.13,7.63,20.06,12.76,2.95,2.55,5.75,5.3,8.32,8.25,2.4,2.76,4.62,5.86,5.64,9.42,1.17,4.1.45,8.34-.71,12.35-1.05,3.63-2.37,7.2-3.72,10.73-2.3,6.03-5.01,12.18-9.07,17.26-1.89,2.37-4.09,4.56-6.63,6.22-1.3.85-2.68,1.63-4.13,2.18-.64.24-1.43.61-2.11.36s-1.23-.96-1.71-1.46c-8.36-8.83-10.18-23.13-5.26-34.11,1.25-2.78,2.88-5.36,4.93-7.61,2.2-2.42-1.39-6.03-3.6-3.6h0Z"/>
    </g>
  </g>
</svg>