<?xml version="1.0" encoding="UTF-8"?>
<svg id="Layer_1" xmlns="http://www.w3.org/2000/svg" version="1.1" viewBox="0 0 400 400">
  <!-- Generator: Adobe Illustrator 29.6.1, SVG Export Plug-In . SVG Version: 2.1.1 Build 9)  -->
  <defs>
    <style>
      .st0 {
        fill: #4caf50;
      }
    </style>
  </defs>
  <path class="st0" d="M333,217.3h0c-4.9,0-9.3-2-12.5-5.2s-5.2-7.6-5.2-12.5h0c0-4.9,2-9.3,5.2-12.5s7.6-5.2,12.5-5.2h0c4.9,0,9.3,2,12.5,5.2s5.2,7.6,5.2,12.5h0c0,4.9-2,9.3-5.2,12.5-3.2,3.2-7.6,5.2-12.5,5.2Z"/>
  <path class="st0" d="M111.4,271.8h0c-4.9,0-9.3-2-12.5-5.2s-5.2-7.6-5.2-12.5v-70.9s0-70.9,0-70.9c0-4.9,2-9.3,5.2-12.5,3.2-3.2,7.6-5.2,12.5-5.2h0c4.9,0,9.3,2,12.5,5.2,3.2,3.2,5.2,7.6,5.2,12.5v70.9s0,70.9,0,70.9c0,4.9-2,9.3-5.2,12.5s-7.6,5.2-12.5,5.2Z"/>
  <path class="st0" d="M155.7,305.4h0c-4.9,0-9.3-2-12.5-5.2s-5.2-7.6-5.2-12.5v-35.5s0-35.5,0-35.5c0-4.9,2-9.3,5.2-12.5s7.6-5.2,12.5-5.2h0c4.9,0,9.3,2,12.5,5.2s5.2,7.6,5.2,12.5v35.5s0,35.5,0,35.5c0,4.9-2,9.3-5.2,12.5s-7.6,5.2-12.5,5.2Z"/>
  <path class="st0" d="M200,230.7h0c-4.9,0-9.3-2-12.5-5.2s-5.2-7.6-5.2-12.5v-17.7s0-17.7,0-17.7c0-4.9,2-9.3,5.2-12.5s7.6-5.2,12.5-5.2h0c4.9,0,9.3,2,12.5,5.2s5.2,7.6,5.2,12.5v17.7s0,17.7,0,17.7c0,4.9-2,9.3-5.2,12.5s-7.6,5.2-12.5,5.2Z"/>
  <path class="st0" d="M244.3,305.4h0c-4.9,0-9.3-2-12.5-5.2-3.2-3.2-5.2-7.6-5.2-12.5v-35.5s0-35.5,0-35.5c0-4.9,2-9.3,5.2-12.5,3.2-3.2,7.6-5.2,12.5-5.2h0c4.9,0,9.3,2,12.5,5.2s5.2,7.6,5.2,12.5v35.5s0,35.5,0,35.5c0,4.9-2,9.3-5.2,12.5s-7.6,5.2-12.5,5.2Z"/>
  <path class="st0" d="M288.6,271.8h0c-4.9,0-9.3-2-12.5-5.2s-5.2-7.6-5.2-12.5v-70.9s0-70.9,0-70.9c0-4.9,2-9.3,5.2-12.5s7.6-5.2,12.5-5.2h0c4.9,0,9.3,2,12.5,5.2s5.2,7.6,5.2,12.5v70.9s0,70.9,0,70.9c0,4.9-2,9.3-5.2,12.5s-7.6,5.2-12.5,5.2Z"/>
  <path class="st0" d="M67,217.3h0c-4.9,0-9.3-2-12.5-5.2-3.2-3.2-5.2-7.6-5.2-12.5h0c0-4.9,2-9.3,5.2-12.5s7.6-5.2,12.5-5.2h0c4.9,0,9.3,2,12.5,5.2s5.2,7.6,5.2,12.5h0c0,4.9-2,9.3-5.2,12.5s-7.6,5.2-12.5,5.2Z"/>
</svg>